# xmcd
#
# Track frame offsets:
# 150
# 17720
# 29032
# 40450
# 56250
# 72035
# 85267
# 100854
# 117837
# 127377
# 145012
# 159137
#
# Disc length: 2381 seconds
#
#
# Revision: 0
# Processed by: cddbd v1.5.2PL0 Copyright (c) Steve Scherf et al.
# Submitted via: FreeRIP 2.951 
#
DISCID=9e094b0c
DTITLE=Paulo Matricó - Outro Verso
DYEAR=1900
DGENRE=Regional
TTITLE0=Pau de Atiradeira
TTITLE1=Da Cor do Chão
TTITLE2=Na Roça
TTITLE3=Moenda (Lembrança de Engenho)
TTITLE4=Fuxico
TTITLE5=Avoante Saudade
TTITLE6=Canção da Lua
TTITLE7=Prosa Mineira
TTITLE8=Terra Mãe
TTITLE9=Fulorando
TTITLE10=Absorto
TTITLE11=Coração Mamulengo
EXTD=
EXTT0=
EXTT1=
EXTT2=
EXTT3=
EXTT4=
EXTT5=
EXTT6=
EXTT7=
EXTT8=
EXTT9=
EXTT10=
EXTT11=
PLAYORDER=
